<svg width="60" height="60" viewBox="0 0 60 60" fill="none" xmlns="http://www.w3.org/2000/svg">
<path d="M38.975 30.65C46.058 30.65 51.8 24.9081 51.8 17.825C51.8 10.742 46.058 5 38.975 5C31.8919 5 26.15 10.742 26.15 17.825C26.15 24.9081 31.8919 30.65 38.975 30.65Z" stroke="#635BFF" stroke-width="1.5" stroke-miterlimit="10"/>
<path d="M15.9 48.6C20.1526 48.6 23.6 45.1525 23.6 40.9C23.6 36.6474 20.1526 33.2 15.9 33.2C11.6474 33.2 8.20001 36.6474 8.20001 40.9C8.20001 45.1525 11.6474 48.6 15.9 48.6Z" stroke="#635BFF" stroke-width="1.5" stroke-miterlimit="10"/>
<path d="M41.55 54.9999C45.0846 54.9999 47.95 52.1346 47.95 48.5999C47.95 45.0653 45.0846 42.2 41.55 42.2C38.0154 42.2 35.15 45.0653 35.15 48.5999C35.15 52.1346 38.0154 54.9999 41.55 54.9999Z" stroke="#635BFF" stroke-width="1.5" stroke-miterlimit="10"/>
</svg>
