<svg width="60" height="60" viewBox="0 0 60 60" fill="none" xmlns="http://www.w3.org/2000/svg">
<path d="M47.85 48.75C52.275 44.25 55 38.05 55 31.25C55 17.45 43.8 6.25 30 6.25C16.2 6.25 5 17.45 5 31.25C5 38.05 7.69999 44.2 12.1 48.725" stroke="#635BFF" stroke-width="1.5" stroke-miterlimit="10" stroke-linecap="round" stroke-linejoin="round"/>
<path d="M30.0001 53.75C34.6669 53.75 38.4501 49.9668 38.4501 45.3C38.4501 40.6332 34.6669 36.85 30.0001 36.85C25.3333 36.85 21.55 40.6332 21.55 45.3C21.55 49.9668 25.3333 53.75 30.0001 53.75Z" stroke="#635BFF" stroke-width="1.5" stroke-miterlimit="10" stroke-linecap="round" stroke-linejoin="round"/>
<path d="M38.125 30H40C42.05 30 43.75 28.325 43.75 26.25C43.75 24.2 42.05 22.5 40 22.5C37.95 22.5 36.25 24.175 36.25 26.25V28.125C36.25 29.15 37.1 30 38.125 30Z" stroke="#635BFF" stroke-width="1.5" stroke-miterlimit="10" stroke-linecap="round" stroke-linejoin="round"/>
</svg>
