<svg width="16" height="16" viewBox="0 0 16 16" fill="none" xmlns="http://www.w3.org/2000/svg">
<path d="M11.0137 3.76661L8.94701 2.16661C8.68034 1.89994 8.08034 1.76661 7.68034 1.76661H5.147C4.347 1.76661 3.48034 2.36661 3.28034 3.16661L1.68034 8.03327C1.347 8.96661 1.947 9.76661 2.947 9.76661H5.61367C6.01367 9.76661 6.34701 10.0999 6.28034 10.5666L5.94701 12.6999C5.81367 13.2999 6.21367 13.9666 6.81367 14.1666C7.34701 14.3666 8.01367 14.0999 8.28034 13.6999L11.0137 9.63327" stroke="#364152" stroke-width="1.5" stroke-miterlimit="10"/>
<path d="M14.4131 3.76665V10.3C14.4131 11.2333 14.0131 11.5667 13.0798 11.5667H12.4131C11.4798 11.5667 11.0798 11.2333 11.0798 10.3V3.76665C11.0798 2.83332 11.4798 2.49998 12.4131 2.49998H13.0798C14.0131 2.49998 14.4131 2.83332 14.4131 3.76665Z" stroke="#364152" stroke-width="1.5" stroke-linecap="round" stroke-linejoin="round"/>
</svg>
