<svg width="16" height="27" viewBox="0 0 16 27" fill="none" xmlns="http://www.w3.org/2000/svg">
<path d="M7.09375 26.8594V23.5781C5.89583 23.5573 4.75 23.4531 3.65625 23.2656C2.57292 23.0781 1.6875 22.8333 1 22.5312V20C1.71875 20.3333 2.64062 20.625 3.76562 20.875C4.89062 21.125 6 21.2604 7.09375 21.2812V14.4062C5.71875 14.0208 4.57812 13.5833 3.67188 13.0938C2.77604 12.5938 2.10417 11.9844 1.65625 11.2656C1.20833 10.5469 0.984375 9.67708 0.984375 8.65625C0.984375 7.59375 1.23438 6.6875 1.73438 5.9375C2.24479 5.17708 2.95833 4.58333 3.875 4.15625C4.79167 3.72917 5.86458 3.48438 7.09375 3.42188V0.71875H9V3.39062C10.1146 3.42188 11.1302 3.54688 12.0469 3.76562C12.9635 3.97396 13.8125 4.24479 14.5938 4.57812L13.7812 6.75C13.0729 6.46875 12.3073 6.22917 11.4844 6.03125C10.6615 5.83333 9.83333 5.69792 9 5.625V12.4531C10.3958 12.8594 11.5625 13.2917 12.5 13.75C13.4479 14.2083 14.1615 14.776 14.6406 15.4531C15.1198 16.1302 15.3594 17.0052 15.3594 18.0781C15.3594 19.599 14.8021 20.8281 13.6875 21.7656C12.5729 22.6927 11.0104 23.2552 9 23.4531V26.8594H7.09375ZM9 21.1406C10.2812 21.0156 11.2344 20.7083 11.8594 20.2188C12.4948 19.7188 12.8125 19.0625 12.8125 18.25C12.8125 17.6667 12.6875 17.1875 12.4375 16.8125C12.1979 16.4375 11.8021 16.1146 11.25 15.8438C10.6979 15.5625 9.94792 15.2969 9 15.0469V21.1406ZM7.09375 11.7969V5.6875C6.3125 5.73958 5.65625 5.88542 5.125 6.125C4.59375 6.36458 4.19271 6.67708 3.92188 7.0625C3.66146 7.44792 3.53125 7.90625 3.53125 8.4375C3.53125 9.05208 3.64583 9.56771 3.875 9.98438C4.11458 10.3906 4.49479 10.7396 5.01562 11.0312C5.54688 11.3125 6.23958 11.5677 7.09375 11.7969Z" fill="#FF9B24"/>
</svg>
