<svg width="16" height="16" viewBox="0 0 16 16" fill="none" xmlns="http://www.w3.org/2000/svg">
<path d="M4.98633 12.2334L7.05299 13.8334C7.31966 14.1001 7.91966 14.2334 8.31966 14.2334H10.853C11.653 14.2334 12.5197 13.6334 12.7197 12.8334L14.3197 7.96673C14.653 7.03339 14.053 6.23339 13.053 6.23339H10.3863C9.98633 6.23339 9.65299 5.90006 9.71966 5.43339L10.053 3.30006C10.1863 2.70006 9.78633 2.03339 9.18633 1.83339C8.65299 1.63339 7.98633 1.90006 7.71966 2.30006L4.98633 6.36673" stroke="#364152" stroke-width="1.5" stroke-miterlimit="10"/>
<path d="M1.58691 12.2333V5.70002C1.58691 4.76668 1.98691 4.43335 2.92025 4.43335H3.58691C4.52025 4.43335 4.92025 4.76668 4.92025 5.70002V12.2333C4.92025 13.1667 4.52025 13.5 3.58691 13.5H2.92025C1.98691 13.5 1.58691 13.1667 1.58691 12.2333Z" stroke="#364152" stroke-width="1.5" stroke-linecap="round" stroke-linejoin="round"/>
</svg>
